# xmcd
#
# Track frame offsets:
#	150
#	10044
#	21617
#	35193
#	46303
#	59840
#	69600
#	80195
#	93950
#	107131
#	117251
#	126722
#	136803
#	148021
#	159651
#	170290
#	183214
#	193931
#	205173
#	217564
#
# Disc length: 3039 seconds
#
# Revision: 1
# Processed by: cddbd v1.5.2PL0 Copyright (c) Steve Scherf et al.
# Submitted via: audiograbber 1.81.03
#
DISCID=2e0bdd14
DTITLE=Guitar Slim - The Story Of My Life
DYEAR=2007
DGENRE=Blues
TTITLE0=Certainly All
TTITLE1=Feelin' Sad
TTITLE2=The Things That I Used To Do
TTITLE3=Well I Done Got Over It
TTITLE4=The Story Of My Life
TTITLE5=A Letter To My Girlfriend
TTITLE6=Later For You Baby
TTITLE7=Trouble Don't Last
TTITLE8=Bad Luck Blues
TTITLE9=Twenty-Five Lies
TTITLE10=Our Only Child
TTITLE11=Stand By Me
TTITLE12=Sufferin' Mind
TTITLE13=Guitar Slim
TTITLE14=I Got Sumpin' For You
TTITLE15=You're Gonna Miss Me
TTITLE16=Quicksand
TTITLE17=Think It Over
TTITLE18=Something To Remember You By
TTITLE19=You Give Me Nothin' But The Blues
EXTD=
EXTT0=
EXTT1=
EXTT2=
EXTT3=
EXTT4=
EXTT5=
EXTT6=
EXTT7=
EXTT8=
EXTT9=
EXTT10=
EXTT11=
EXTT12=
EXTT13=
EXTT14=
EXTT15=
EXTT16=
EXTT17=
EXTT18=
EXTT19=
PLAYORDER=
